<!DOCTYPE svg PUBLIC "-//W3C//DTD SVG 20010904//EN" "http://www.w3.org/TR/2001/REC-SVG-20010904/DTD/svg10.dtd">
<svg version="1.0" xmlns="http://www.w3.org/2000/svg" width="515px" height="477px" viewBox="0 0 5150 4770" preserveAspectRatio="xMidYMid meet">
<g id="layer101" fill="#000000" stroke="none">
 <path d="M1830 4723 c-176 -30 -382 -98 -565 -188 -240 -117 -409 -240 -597 -433 -294 -304 -499 -694 -583 -1113 -67 -335 -61 -714 15 -1029 52 -211 161 -491 258 -660 46 -80 157 -243 222 -325 91 -115 327 -346 441 -430 328 -244 697 -406 1091 -479 270 -50 267 -49 500 -43 289 8 455 33 693 102 50 15 123 36 163 46 155 41 321 127 542 282 357 249 602 514 795 857 150 268 242 528 295 840 20 114 21 150 17 410 -5 272 -7 291 -36 423 -135 607 -456 1091 -941 1417 -174 117 -422 227 -647 287 l-138 37 -285 4 c-254 3 -296 1 -388 -17 -103 -20 -104 -20 -195 -1 -79 17 -130 20 -362 18 -148 0 -281 -3 -295 -5z"/>
 </g>
<g id="layer102" fill="#ffffff" stroke="none">
 <path d="M2565 4662 c-68 -13 -239 -79 -350 -135 -450 -226 -760 -631 -851 -1112 -23 -119 -23 -349 -1 -471 73 -401 312 -727 664 -907 420 -214 917 -171 1291 113 590 448 669 1305 177 1935 -80 102 -220 235 -340 320 -112 80 -318 183 -450 225 -123 39 -116 37 -140 32z"/>
 </g>

</svg>